<?xml version="1.0" standalone="no"?>
<!DOCTYPE svg PUBLIC "-//W3C//DTD SVG 20010904//EN"
 "http://www.w3.org/TR/2001/REC-SVG-20010904/DTD/svg10.dtd">
<svg version="1.0" xmlns="http://www.w3.org/2000/svg"
 width="920.000000pt" height="606.000000pt" viewBox="0 0 920.000000 606.000000"
 preserveAspectRatio="xMidYMid meet">

<g transform="translate(0.000000,606.000000) scale(0.100000,-0.100000)"
fill="#000000" stroke="none">
<path d="M5867 5946 c-5 -30 -39 -108 -78 -176 -19 -33 -94 -105 -149 -142
-69 -46 -11 -26 80 28 51 29 151 173 156 224 1 8 5 34 9 58 5 26 4 42 -2 42
-6 0 -13 -15 -16 -34z"/>
<path d="M6185 5649 c-167 -141 -323 -187 -865 -253 -325 -40 -350 -44 -350
-59 0 -16 387 -20 650 -7 194 10 290 28 362 66 14 8 33 14 41 14 8 0 20 6 26
14 6 7 25 16 40 19 36 7 181 147 181 174 0 11 5 24 11 30 15 15 7 57 -11 60
-8 1 -46 -25 -85 -58z"/>
<path d="M5890 5650 c-19 -16 -40 -30 -45 -30 -6 0 -16 -5 -22 -11 -26 -26
-150 -63 -278 -83 -148 -23 -225 -40 -225 -48 0 -5 17 -6 38 -2 20 3 64 7 97
9 134 6 202 17 270 45 11 5 37 11 57 15 21 3 43 11 50 18 7 7 27 19 43 27 39
18 85 60 85 77 0 22 -33 14 -70 -17z"/>
<path d="M4535 5190 c-138 -4 -254 -13 -310 -24 -172 -33 -280 -58 -310 -71
-16 -8 -77 -30 -134 -50 -57 -20 -118 -45 -135 -56 -17 -10 -56 -30 -86 -45
-66 -33 -254 -155 -330 -215 -99 -77 -311 -292 -360 -364 -26 -39 -55 -77 -64
-84 -9 -7 -16 -18 -16 -23 0 -5 -19 -37 -42 -71 -61 -90 -71 -108 -92 -152
-10 -22 -34 -70 -52 -106 -19 -37 -34 -72 -34 -79 0 -6 -6 -26 -14 -43 -21
-46 -74 -230 -92 -317 -62 -303 -54 -701 19 -980 17 -67 67 -211 77 -225 4 -5
13 -31 20 -58 7 -26 17 -50 21 -53 5 -3 9 -14 9 -25 0 -11 10 -33 21 -49 14
-18 19 -35 14 -47 -6 -17 -7 -17 -21 2 -32 43 -123 207 -135 242 -7 21 -18 45
-25 53 -6 8 -22 49 -34 90 -13 41 -26 82 -30 90 -8 16 -26 96 -61 268 -28 140
-23 393 10 560 12 63 20 117 17 120 -4 3 -16 -4 -29 -16 -13 -12 -28 -22 -35
-22 -16 0 -33 35 -26 54 3 9 1 16 -5 16 -6 0 -11 -7 -11 -15 0 -8 -4 -15 -8
-15 -8 0 -19 -57 -43 -218 -10 -66 -10 -113 0 -230 15 -189 36 -275 101 -427
7 -16 16 -39 20 -50 12 -31 99 -208 113 -229 6 -11 20 -28 30 -38 20 -21 21
-27 7 -48 -9 -13 -14 -10 -36 15 -69 79 -160 169 -211 207 -125 96 -210 155
-250 175 -23 12 -50 26 -60 31 -124 64 -260 91 -454 92 -133 0 -221 -12 -266
-35 -16 -8 -35 -15 -44 -15 -9 0 -22 -7 -29 -15 -7 -8 -19 -15 -27 -15 -8 0
-35 -13 -60 -30 -24 -16 -48 -30 -53 -30 -18 0 -164 -157 -204 -220 -40 -62
-48 -77 -76 -145 -39 -95 -49 -215 -26 -320 18 -83 46 -131 113 -196 171 -166
369 -195 582 -84 62 33 181 158 181 191 0 27 -24 13 -77 -45 -77 -86 -202
-141 -316 -141 -117 0 -270 99 -328 211 -31 62 -38 179 -13 245 24 67 93 171
146 220 47 45 151 124 162 124 4 0 28 10 54 22 73 35 130 47 216 48 76 0 219
-22 261 -40 11 -5 31 -12 45 -15 37 -10 160 -73 200 -103 97 -72 255 -220 397
-370 229 -242 367 -379 457 -452 43 -36 100 -83 126 -105 73 -61 172 -139 192
-150 9 -5 45 -29 78 -53 33 -23 63 -42 65 -42 2 0 24 -13 48 -30 25 -16 52
-30 60 -30 8 0 20 -7 28 -16 13 -16 95 -56 217 -105 15 -6 38 -17 52 -24 14
-7 40 -16 57 -20 18 -3 35 -11 38 -16 4 -5 15 -9 26 -9 10 0 27 -4 37 -9 19
-10 164 -44 262 -62 82 -15 410 -15 510 0 41 6 120 16 175 21 212 20 346 47
525 108 74 25 162 58 195 75 33 16 92 46 130 65 39 19 84 45 102 58 17 13 35
24 38 24 8 0 113 72 176 121 167 129 414 399 463 505 8 17 19 34 24 38 24 15
185 345 222 456 26 78 67 250 81 340 5 36 14 87 19 113 15 76 12 359 -5 487
-22 156 -80 419 -105 469 -19 39 -40 93 -40 102 0 18 -107 236 -119 243 -6 4
-11 19 -11 34 1 25 6 22 66 -43 79 -85 109 -127 164 -230 85 -156 100 -188
100 -203 0 -13 29 -105 50 -157 13 -33 37 -134 56 -235 24 -132 24 -427 -1
-525 -37 -153 -36 -177 6 -139 21 19 37 12 50 -23 21 -56 41 -10 73 163 20
114 20 168 0 324 -17 126 -64 315 -89 354 -7 12 -16 32 -20 46 -8 31 -127 273
-137 280 -4 4 -11 22 -14 40 -7 34 -4 32 87 -56 130 -127 295 -264 318 -264 5
0 14 -7 21 -14 6 -8 30 -24 53 -35 99 -46 158 -71 170 -71 7 0 17 -4 23 -9 25
-23 174 -44 319 -45 158 -1 248 15 323 56 18 10 41 18 51 18 10 0 26 9 36 20
10 11 24 20 30 20 21 0 180 145 227 207 44 58 78 117 78 136 0 6 6 18 14 26
15 18 35 90 46 166 9 59 -13 200 -39 260 -10 22 -46 70 -79 106 -65 71 -160
126 -255 150 -55 13 -193 7 -210 -10 -6 -6 -18 -11 -26 -11 -55 0 -251 -151
-251 -193 0 -25 27 -21 45 7 18 27 127 106 147 106 7 0 25 7 40 14 42 22 129
29 192 16 38 -8 81 -28 130 -61 77 -51 109 -85 145 -156 41 -82 20 -247 -43
-338 -109 -157 -211 -232 -386 -287 -118 -37 -377 -9 -495 54 -22 12 -53 28
-70 36 -54 27 -158 103 -230 167 -66 60 -107 101 -405 409 -136 139 -315 307
-425 398 -93 77 -190 148 -202 148 -5 0 -20 11 -33 25 -13 14 -29 25 -35 25
-7 0 -20 9 -30 20 -11 12 -35 28 -54 37 -20 9 -45 24 -56 33 -26 22 -61 41
-170 91 -49 23 -112 52 -140 64 -27 13 -77 31 -110 40 -33 9 -69 20 -80 24
-35 15 -197 51 -270 60 -110 15 -359 19 -600 11z m245 -95 c180 -19 323 -46
395 -76 11 -4 40 -13 65 -19 25 -7 59 -18 75 -25 178 -78 277 -128 344 -173
29 -20 77 -53 106 -72 139 -92 381 -329 475 -465 22 -31 123 -186 137 -210 83
-138 187 -425 223 -614 45 -243 48 -579 6 -746 -8 -33 -20 -85 -26 -115 -7
-30 -18 -73 -25 -95 -7 -22 -18 -60 -26 -85 -7 -25 -19 -56 -26 -70 -7 -14
-13 -31 -13 -38 0 -7 -4 -20 -9 -30 -5 -9 -33 -64 -62 -122 -28 -58 -73 -136
-98 -175 -25 -38 -50 -77 -56 -86 -45 -72 -84 -116 -228 -262 -91 -91 -189
-182 -218 -201 -30 -19 -79 -53 -109 -76 -30 -22 -62 -43 -70 -47 -8 -4 -52
-29 -98 -55 -46 -26 -90 -48 -97 -48 -8 0 -17 -5 -20 -10 -3 -5 -13 -10 -21
-10 -8 0 -34 -9 -56 -20 -23 -11 -47 -20 -53 -20 -6 0 -30 -9 -53 -20 -22 -11
-48 -20 -57 -20 -8 0 -23 -4 -33 -9 -28 -16 -194 -51 -237 -51 -22 0 -71 -7
-110 -15 -91 -19 -337 -20 -441 -1 -44 8 -104 18 -134 21 -116 15 -214 41
-307 81 -17 8 -38 14 -46 14 -9 0 -18 4 -21 9 -3 4 -20 11 -37 15 -46 9 -89
28 -213 95 -82 44 -223 138 -308 206 -140 111 -402 418 -490 573 -58 102 -118
226 -118 242 0 11 -13 47 -29 82 -16 35 -36 90 -46 123 -9 33 -21 74 -26 91
-10 32 -21 113 -40 275 -17 149 -6 472 19 594 25 116 41 182 53 210 4 11 22
58 39 105 18 47 38 103 47 125 23 63 117 236 164 304 24 34 51 73 59 85 32 51
193 228 272 299 90 82 252 207 266 207 5 0 15 7 22 15 10 12 146 93 175 104
19 7 100 43 141 62 22 10 48 19 57 19 9 0 18 4 21 8 3 4 28 14 56 22 28 8 53
18 56 22 3 4 17 8 31 8 14 0 46 6 72 14 186 58 433 76 681 51z"/>
<path d="M3334 4456 c-3 -7 -4 -35 -2 -62 l3 -49 60 -10 c83 -14 126 -49 171
-141 46 -92 46 -89 -16 -459 -10 -60 -23 -144 -30 -185 -6 -41 -18 -109 -27
-150 -9 -41 -19 -97 -23 -125 -4 -27 -12 -77 -18 -110 -11 -60 -26 -156 -42
-270 -5 -33 -13 -76 -19 -95 -6 -19 -11 -54 -11 -77 0 -23 -5 -54 -10 -69 -6
-15 -19 -71 -30 -123 -34 -177 -101 -312 -182 -372 -51 -37 -113 -67 -148 -71
-24 -3 -25 -6 -25 -73 l0 -70 405 0 405 0 0 70 0 69 -50 16 c-120 39 -167 78
-205 167 -21 49 -22 62 -17 240 5 200 17 321 42 418 8 33 19 94 25 135 14 104
27 183 44 265 9 39 20 104 26 145 6 41 18 111 27 155 9 44 18 98 22 120 8 54
33 58 55 8 9 -21 21 -46 26 -55 6 -10 10 -24 10 -31 0 -7 11 -37 25 -65 14
-29 25 -59 25 -68 0 -9 6 -28 14 -42 8 -15 27 -64 42 -110 15 -45 31 -85 36
-88 4 -3 8 -15 8 -27 0 -13 6 -31 13 -42 8 -11 19 -42 26 -70 7 -27 16 -54 20
-60 5 -5 16 -34 25 -62 10 -29 22 -55 27 -58 5 -4 9 -16 9 -28 0 -12 7 -35 15
-51 8 -15 15 -32 15 -37 0 -5 9 -28 19 -52 11 -23 27 -67 36 -97 10 -30 24
-62 31 -71 8 -8 14 -22 14 -29 0 -7 13 -50 29 -94 16 -45 32 -97 36 -116 4
-19 13 -44 19 -55 7 -11 16 -38 19 -60 3 -22 13 -69 21 -105 8 -36 21 -99 27
-140 6 -41 16 -81 22 -87 13 -17 158 -18 175 -1 7 7 12 32 12 57 0 26 12 87
26 136 14 50 28 99 31 110 2 11 9 30 14 43 10 25 25 61 38 95 5 12 24 63 42
112 18 50 36 95 39 100 4 6 10 24 14 40 4 17 14 44 21 60 7 17 25 62 40 100
14 39 30 79 35 90 4 11 16 45 25 75 9 30 25 75 37 99 22 49 71 180 94 251 8
25 20 54 26 65 14 24 77 199 85 235 4 14 12 34 19 45 7 11 20 45 29 77 15 53
39 88 51 75 10 -9 23 -77 39 -192 9 -60 20 -137 25 -170 11 -61 22 -149 40
-305 5 -47 14 -103 19 -125 6 -22 11 -61 11 -87 0 -26 5 -59 10 -74 6 -14 13
-61 16 -103 3 -42 10 -85 14 -96 11 -24 18 -91 26 -253 6 -116 5 -126 -15
-152 -11 -16 -21 -36 -21 -44 0 -19 -127 -106 -155 -106 -11 -1 -42 -7 -70
-14 l-50 -13 0 -69 0 -69 510 0 510 0 0 70 0 69 -50 16 c-193 61 -244 160
-295 575 -5 39 -14 99 -20 135 -6 36 -15 94 -20 130 -8 62 -20 141 -41 261 -5
30 -9 72 -9 92 0 21 -6 63 -14 95 -16 61 -29 142 -46 287 -6 50 -16 115 -22
145 -6 30 -13 126 -15 213 -4 158 -4 159 22 197 47 67 98 100 168 108 l62 7 0
60 0 60 -335 0 -335 0 -7 -105 c-3 -58 -11 -121 -16 -140 -6 -19 -17 -59 -26
-89 -8 -30 -20 -59 -25 -64 -6 -6 -11 -21 -11 -34 0 -13 -4 -31 -9 -41 -4 -9
-18 -48 -30 -87 -24 -74 -63 -179 -87 -231 -8 -18 -25 -63 -38 -100 -13 -38
-30 -85 -36 -104 -7 -19 -17 -43 -22 -54 -5 -10 -16 -37 -23 -60 -12 -36 -36
-99 -107 -281 -10 -27 -28 -77 -39 -110 -11 -33 -26 -76 -35 -95 -8 -19 -19
-44 -24 -55 -5 -11 -15 -39 -21 -63 -15 -52 -33 -70 -54 -52 -8 7 -15 21 -15
31 0 10 -6 33 -14 51 -8 18 -25 60 -37 93 -12 33 -28 74 -35 92 -8 17 -14 36
-14 42 0 12 -93 257 -121 317 -11 22 -19 44 -19 49 0 10 -95 275 -114 320 -8
17 -26 64 -41 105 -15 41 -38 102 -50 135 -13 33 -29 78 -36 100 -6 22 -15 49
-20 60 -18 44 -63 262 -71 345 l-3 25 -323 3 c-268 2 -323 0 -328 -12z"/>
<path d="M5520 5192 c0 -5 12 -13 28 -17 15 -3 45 -15 67 -25 47 -21 113 -51
170 -75 62 -26 111 -52 233 -124 61 -36 124 -72 140 -80 15 -8 52 -33 82 -55
30 -23 64 -46 75 -52 11 -5 64 -44 119 -85 158 -119 211 -158 217 -158 3 -1
42 -25 85 -54 43 -29 106 -61 139 -71 33 -10 65 -22 70 -26 23 -16 155 -32
211 -26 112 12 143 18 155 32 6 8 15 14 20 14 14 0 92 56 121 87 41 43 70 115
66 162 -4 54 -18 53 -36 -1 -17 -52 -109 -150 -168 -178 -31 -16 -61 -20 -135
-20 -92 0 -148 11 -226 46 -17 8 -34 14 -38 14 -6 0 -84 52 -251 166 -25 18
-55 41 -67 51 -19 17 -137 99 -202 141 -11 6 -47 26 -80 42 -33 17 -76 40 -95
52 -76 46 -316 158 -340 158 -7 0 -24 6 -38 14 -15 8 -76 26 -137 40 -153 35
-185 40 -185 28z"/>
<path d="M7000 4180 c0 -6 7 -10 15 -10 8 0 15 2 15 4 0 2 -7 6 -15 10 -8 3
-15 1 -15 -4z"/>
<path d="M7062 4013 c2 -9 32 -36 67 -59 69 -47 127 -60 226 -52 51 4 95 27
95 50 0 11 -58 10 -65 -2 -13 -22 -118 -4 -210 35 -63 27 -108 45 -112 45 -2
0 -3 -8 -1 -17z"/>
<path d="M355 3844 c-145 -75 -185 -262 -98 -454 54 -119 225 -243 399 -290
43 -12 103 -28 133 -37 55 -15 164 -36 278 -52 34 -5 66 -11 70 -14 5 -3 41
-13 79 -21 232 -51 394 -94 469 -127 11 -5 54 -22 95 -38 41 -16 102 -43 135
-60 59 -30 95 -39 95 -23 0 15 -161 125 -200 137 -12 4 -37 17 -55 30 -18 12
-60 32 -92 45 -32 13 -67 31 -79 42 -11 10 -28 18 -38 18 -9 0 -27 5 -39 12
-12 6 -38 15 -57 19 -19 4 -93 25 -165 47 -71 22 -173 47 -225 56 -52 10 -111
21 -130 26 -19 5 -84 18 -145 30 -60 12 -129 30 -152 41 -24 10 -47 19 -52 19
-20 0 -118 55 -166 92 -27 22 -68 65 -90 96 l-40 57 0 118 0 118 63 60 c34 34
62 63 62 65 0 9 -26 3 -55 -12z"/>
<path d="M8664 3823 c-15 -47 -73 -154 -114 -208 -64 -85 -163 -172 -272 -240
-27 -17 -48 -33 -48 -37 0 -5 -5 -8 -12 -8 -28 0 -128 -46 -128 -59 0 -21 73
-5 130 28 8 5 55 28 104 52 75 37 106 60 186 139 93 92 106 113 163 243 19 42
22 93 7 102 -6 3 -13 -2 -16 -12z"/>
<path d="M8880 3700 c0 -23 -142 -200 -213 -266 -42 -39 -73 -74 -70 -78 15
-15 50 -3 102 36 65 48 191 168 191 181 0 5 14 25 30 44 33 37 39 63 15 63 -9
0 -18 7 -21 15 -7 17 -34 21 -34 5z"/>
<path d="M999 3581 c-15 -5 -37 -19 -50 -32 -48 -46 -59 -72 -59 -134 0 -59
25 -145 41 -145 12 0 11 3 -6 36 -24 46 -19 128 9 173 29 45 95 81 149 81 51
0 127 -67 128 -114 l1 -31 10 28 c13 35 -2 74 -43 113 -25 24 -39 28 -92 31
-34 1 -74 -1 -88 -6z"/>
<path d="M1206 3394 c-4 -9 -4 -19 -1 -22 2 -3 7 3 11 12 4 9 4 19 1 22 -2 3
-7 -3 -11 -12z"/>
<path d="M7230 3305 c0 -13 69 -65 86 -65 4 0 22 -11 40 -25 18 -14 85 -50
148 -81 64 -30 118 -60 122 -65 3 -6 12 -8 19 -5 8 3 31 -3 52 -13 103 -49
328 -114 493 -141 48 -8 122 -22 235 -45 128 -26 236 -64 286 -100 27 -19 53
-35 58 -35 13 0 119 -117 137 -151 8 -17 18 -67 21 -112 4 -70 2 -89 -17 -132
-12 -27 -29 -58 -37 -68 -13 -14 -14 -20 -4 -30 20 -19 86 62 107 131 51 175
-34 377 -205 490 -123 81 -236 118 -516 167 -49 9 -121 22 -160 29 -83 16
-319 73 -355 86 -14 5 -65 21 -115 36 -49 15 -94 30 -100 34 -5 4 -28 13 -50
20 -22 7 -44 16 -50 20 -5 4 -23 10 -40 14 -16 4 -53 18 -82 32 -60 28 -73 30
-73 9z"/>
<path d="M60 3228 c86 -83 197 -156 289 -190 31 -12 65 -27 76 -34 38 -24 153
-53 234 -59 91 -7 107 5 30 23 -28 7 -65 18 -83 26 -17 8 -52 22 -79 32 -63
23 -161 72 -217 110 -25 16 -58 36 -74 43 -17 7 -46 24 -65 39 -48 36 -99 60
-139 65 l-34 4 62 -59z"/>
<path d="M8562 3088 c2 -6 27 -19 55 -29 28 -9 66 -24 84 -32 19 -8 41 -18 49
-21 8 -3 42 -24 75 -46 33 -22 74 -46 90 -54 17 -8 49 -28 72 -45 24 -17 47
-31 53 -31 5 0 35 -13 65 -30 49 -26 95 -39 95 -25 0 17 -162 149 -215 175
-16 8 -43 24 -60 35 -29 20 -68 39 -110 55 -11 4 -31 12 -45 18 -78 32 -116
42 -161 42 -34 0 -49 -4 -47 -12z"/>
<path d="M1015 2774 c-22 -8 -52 -19 -67 -24 -73 -23 -348 -246 -348 -282 0
-6 -9 -21 -20 -33 -42 -45 -82 -214 -47 -203 6 3 14 18 17 34 11 60 131 228
211 294 30 25 59 50 64 56 15 16 99 67 184 111 103 54 107 85 6 47z"/>
<path d="M582 2710 c-29 -22 -57 -40 -63 -40 -41 0 -259 -232 -259 -274 0 -13
10 -26 25 -33 24 -11 28 -8 82 64 59 78 195 220 273 285 42 34 43 37 20 37
-14 1 -48 -16 -78 -39z"/>
<path d="M8300 2675 c-1 -50 -35 -111 -82 -145 -39 -29 -49 -31 -98 -27 -50 4
-58 8 -97 51 -47 52 -56 44 -20 -19 31 -54 58 -66 142 -63 80 4 123 27 149 80
21 41 30 113 17 135 -9 15 -10 14 -11 -12z"/>
<path d="M1813 2147 c-34 -13 -60 -34 -52 -42 3 -2 35 -1 71 3 55 7 78 5 135
-13 37 -12 82 -29 98 -37 50 -26 75 -31 75 -16 0 15 -58 64 -110 92 -43 24
-170 31 -217 13z"/>
<path d="M2160 1885 c13 -16 50 -21 50 -6 0 5 -10 11 -22 15 -36 9 -41 7 -28
-9z"/>
<path d="M1975 1679 c-16 -5 -43 -16 -60 -23 -16 -8 -45 -19 -63 -26 -37 -15
-123 -105 -149 -159 -18 -38 -25 -142 -9 -151 4 -3 17 24 28 60 21 69 44 99
123 160 68 52 141 66 259 51 66 -9 103 -21 154 -48 37 -19 71 -39 77 -44 5 -5
15 -9 23 -9 7 0 69 -43 138 -95 68 -52 126 -95 129 -95 3 0 43 -27 89 -60 47
-33 89 -60 94 -60 5 0 16 -7 23 -16 7 -9 22 -20 34 -25 11 -6 47 -26 80 -45
55 -32 153 -80 215 -106 14 -6 39 -16 55 -23 17 -7 41 -18 55 -24 128 -57 340
-108 340 -82 0 12 -46 41 -64 41 -8 0 -50 18 -93 40 -43 22 -82 40 -86 40 -4
0 -25 11 -45 25 -20 14 -43 25 -50 25 -7 0 -33 14 -57 30 -24 17 -48 30 -53
30 -5 0 -15 7 -22 15 -7 8 -24 21 -39 28 -89 47 -198 120 -363 242 -131 97
-183 134 -190 135 -4 0 -36 20 -72 45 -37 25 -71 45 -77 45 -6 0 -23 6 -37 14
-53 28 -118 54 -152 61 -64 12 -204 15 -235 4z"/>
<path d="M3445 719 c-38 -4 -90 -15 -114 -24 -24 -8 -56 -15 -72 -15 -15 0
-30 -4 -34 -9 -3 -5 -18 -12 -34 -16 -32 -7 -150 -82 -194 -124 -16 -14 -39
-49 -53 -77 -42 -89 -27 -125 32 -77 70 56 150 113 174 124 132 61 186 78 308
98 34 6 88 16 120 21 31 6 95 14 142 19 262 29 360 43 407 56 28 8 65 15 83
15 18 0 29 4 25 10 -7 12 -686 11 -790 -1z"/>
<path d="M3889 586 c-2 -2 -42 -6 -89 -10 -182 -13 -225 -19 -263 -32 -22 -8
-49 -14 -60 -14 -18 0 -73 -23 -165 -69 -32 -15 -113 -91 -99 -91 4 0 -1 -12
-10 -27 l-18 -28 32 23 c18 13 35 27 38 32 14 22 102 72 163 92 37 12 81 27
99 35 17 7 41 13 53 13 12 0 29 4 38 9 10 5 53 17 97 26 68 15 112 21 207 28
9 1 14 5 12 9 -5 8 -27 11 -35 4z"/>
<path d="M3561 436 c-79 -41 -131 -84 -171 -141 -33 -49 -36 -55 -17 -55 12 0
87 94 87 109 0 10 113 84 160 104 19 9 28 16 20 16 -8 0 -44 -14 -79 -33z"/>
</g>
</svg>
