<svg width="32" height="33" viewBox="0 0 32 33" fill="none" xmlns="http://www.w3.org/2000/svg">
<path fill-rule="evenodd" clip-rule="evenodd" d="M1.75012 0.00563423C0.783624 0.00563427 0.000120706 0.789133 0.000120748 1.75563L0.000121477 18.4384C0.000121519 19.4049 0.783621 20.1884 1.75012 20.1884L5.71216 20.1884L5.71216 24.6661C5.71216 25.2184 6.15987 25.6661 6.71216 25.6661L12.2247 25.6661L15.481 25.6661L18.065 25.6661C18.4715 25.6661 18.8376 25.9122 18.9911 26.2887L21.0676 31.3836C21.4059 32.2138 22.5813 32.2138 22.9197 31.3836L24.9962 26.2887C25.1496 25.9122 25.5157 25.6661 25.9222 25.6661L28.5062 25.6661L30.7625 25.6661C31.3148 25.6661 31.7625 25.2184 31.7625 24.6661L31.7625 7.98331C31.7625 7.43102 31.3148 6.98331 30.7625 6.98331L27.5504 6.98331L27.5504 1.75563C27.5504 0.789134 26.7669 0.00563314 25.8004 0.00563318L1.75012 0.00563423ZM26.0504 6.98331L26.0504 1.75563C26.0504 1.61756 25.9385 1.50563 25.8004 1.50563L1.75012 1.50563C1.61205 1.50563 1.50012 1.61756 1.50012 1.75563L1.50012 18.4384C1.50012 18.5765 1.61205 18.6884 1.75012 18.6884L5.71216 18.6884L5.71216 7.9833C5.71216 7.43102 6.15987 6.9833 6.71216 6.9833L26.0504 6.98331ZM7.21216 24.1661L7.21216 8.4833L30.2625 8.48331L30.2625 24.1661L28.5062 24.1661L25.9222 24.1661C24.9059 24.1661 23.9907 24.7814 23.6071 25.7226L21.9936 29.6814L20.3801 25.7226C19.9965 24.7814 19.0814 24.1661 18.065 24.1661L15.481 24.1661L12.2247 24.1661L7.21216 24.1661Z" fill="white"/>
</svg>
