<svg width="24" height="24" viewBox="0 0 24 24" fill="none" xmlns="http://www.w3.org/2000/svg">
<path d="M23.7185 22.263L17.0435 15.5272C18.3498 13.8901 19.1373 11.8157 19.1373 9.56001C19.1373 4.28014 14.8561 0 9.56863 0C4.2812 0 0 4.28638 0 9.56626C0 14.8461 4.2812 19.1263 9.56863 19.1263C11.8561 19.1263 13.9498 18.3265 15.5998 16.9893L22.231 23.6813C22.431 23.8938 22.706 24 22.9747 24C23.231 24 23.4872 23.9063 23.681 23.7188C24.0935 23.3252 24.106 22.6753 23.7185 22.263ZM9.56863 17.0706C7.56241 17.0706 5.67493 16.2895 4.2562 14.8711C2.83747 13.4527 2.05622 11.5657 2.05622 9.56626C2.05622 7.56053 2.83747 5.67352 4.2562 4.26139C5.67493 2.84301 7.56241 2.06196 9.56863 2.06196C11.5749 2.06196 13.4623 2.84301 14.8811 4.26139C16.2998 5.67977 17.081 7.56678 17.081 9.56626C17.081 11.572 16.2998 13.459 14.8811 14.8711C13.4623 16.2895 11.5749 17.0706 9.56863 17.0706Z" fill="white"/>
</svg>
