<svg width="17" height="24" viewBox="0 0 17 24" fill="none" xmlns="http://www.w3.org/2000/svg">
<path d="M13.6398 21.254V0H3.3603V21.254H0V24H17V21.254H13.6398ZM12.4282 9.75664V12.8148H9.36366V9.75664H12.4282ZM9.38665 7.54489V4.48769H12.4522V7.54489H9.38665ZM12.4282 14.9806V18.0359H9.36366V14.9806H12.4282ZM4.5959 1.23323H12.5511V2.80926H4.5959V1.23323ZM4.56995 12.8148V9.75664H7.63447V12.8148H4.56995ZM7.63546 14.9806V18.0359H4.56995V14.9806H7.63546ZM4.5959 4.48769H7.65855V7.54489H4.5959V4.48769ZM5.73264 19.6626H11.3645V21.254H5.73264V19.6626Z" fill="#30704C"/>
</svg>
