<svg width="21" height="17" viewBox="0 0 21 17" fill="none" xmlns="http://www.w3.org/2000/svg">
<path fill-rule="evenodd" clip-rule="evenodd" d="M18.7931 4.78954C18.7931 4.60324 18.7886 4.41695 18.7803 4.23216C19.6194 3.62896 20.3473 2.87252 20.9197 2.01317C20.1527 2.35496 19.3234 2.58482 18.4543 2.68848C19.3429 2.15664 20.0213 1.31607 20.3443 0.313242C19.5127 0.806769 18.5963 1.16283 17.6175 1.35513C16.8332 0.52132 15.7192 0 14.4843 0C12.1143 0 10.1928 1.92227 10.1928 4.29225C10.1928 4.62953 10.2296 4.9563 10.3032 5.27104C6.7366 5.09076 3.57262 3.38257 1.45654 0.784985C1.08696 1.41898 0.875879 2.15664 0.875879 2.94388C0.875879 4.43273 1.63382 5.74729 2.78463 6.51575C2.08153 6.49397 1.41973 6.30016 0.841325 5.97941C0.840574 5.99669 0.840573 6.01546 0.840573 6.03349C0.840573 8.11427 2.31965 9.84875 4.28324 10.2424C3.92342 10.3408 3.54333 10.3919 3.15196 10.3919C2.87628 10.3919 2.6066 10.3641 2.34519 10.3145C2.8913 12.0204 4.47705 13.2614 6.355 13.2959C4.88569 14.4467 3.03553 15.1333 1.02386 15.1333C0.677566 15.1333 0.335778 15.113 0 15.0732C1.89899 16.2916 4.15554 17 6.5796 17C14.4768 17 18.7931 10.4617 18.7931 4.78954Z" fill="#30704C"/>
</svg>
