<svg width="20" height="20" viewBox="0 0 20 20" fill="none" xmlns="http://www.w3.org/2000/svg">
<path fill-rule="evenodd" clip-rule="evenodd" d="M4.54427 6.64535V18.374H0.247396V6.64535H4.54427ZM4.81771 3.02381C4.83073 4.14814 3.89323 5.04761 2.39583 5.04761H2.36979C0.92448 5.04761 0 4.14814 0 3.02381C0 1.8758 0.963542 0.999999 2.42188 0.999999C3.89323 0.999999 4.80469 1.8758 4.81771 3.02381ZM11.1979 8.31239C11.7632 7.50922 12.7829 6.37315 15.0651 6.37315C17.8906 6.37315 20 8.05373 20 11.6516V18.374H15.7161V12.1013C15.7161 10.5273 15.0911 9.45028 13.5417 9.45028C12.3568 9.45028 11.6536 10.1722 11.3411 10.8705C11.237 11.1309 11.1979 11.4741 11.1979 11.8291V18.374H6.91406C6.96615 7.74602 6.91406 6.64535 6.91406 6.64535H11.1979V8.31239Z" fill="#30704C"/>
</svg>
